<?xml version="1.0" encoding="utf-8"?>
<svg xmlns="http://www.w3.org/2000/svg" version="1.1" width="600" height="400">
  <title>Plan de la maison</title>
 
    <line x1="25" y1="300" x2="200" y2="300" stroke="white" />
    <line x1="200" y1="325" x2="200" y2="400" stroke="white" />
    <text x="50" y="365" fill="white">Salon</text>

    <line x1="25" y1="100" x2="200" y2="100" stroke="white" />
    <line x1="200" y1="100" x2="200" y2="300" stroke="white" />
    <text x="20" y="225" fill="white">Salle à manger</text>

    <line x1="200" y1="0" x2="200" y2="75" stroke="white" />
    <text x="50" y="50" fill="white">Cuisine</text>

    <line x1="200" y1="100" x2="350" y2="100" stroke="white" />
    <line x1="350" y1="125" x2="350" y2="300" stroke="white" />
    <text x="250" y="50" fill="white">Office</text>

    <line x1="350" y1="0" x2="350" y2="75" stroke="white" />
    <line x1="350" y1="100" x2="575" y2="100" stroke="white" />
    <text x="400" y="50" fill="white">Réserve</text>
 
    <line x1="200" y1="300" x2="350" y2="300" stroke="white" />
    <line x1="350" y1="325" x2="350" y2="400" stroke="white" />
    <text x="250" y="225" fill="white">Bureau</text>
    <text x="250" y="365" fill="white">Vestibule</text>
    <text x="400" y="365" fill="white">Vestiaire</text>

    <line x1="350" y1="300" x2="575" y2="300" stroke="white" />
    <text x="400" y="225" fill="white">Bibliothèque</text>

    <text x="30" y="90" fill="white">(1)</text>
    <text x="60" y="90" fill="white">(2)</text>
    <!-- <text x="90" y="190" fill="white">(3)</text> -->
    <!-- <text x="270" y="90" fill="white">(4)</text> -->
    <!-- <text x="150" y="340" fill="white">(5)</text> -->
</svg>

